<?xml version="1.0" standalone="no"?><!DOCTYPE svg PUBLIC "-//W3C//DTD SVG 1.1//EN" "http://www.w3.org/Graphics/SVG/1.1/DTD/svg11.dtd"><svg class="icon" width="200px" height="200.00px" viewBox="0 0 1024 1024" version="1.1" xmlns="http://www.w3.org/2000/svg"><path fill="#e6e6e6" d="M447.741487 411.489842l165.613922 100.679004-165.613922 99.961666V411.489842m-31.976272-91.626837c-17.662265 0-31.980365 14.3181-31.980365 31.980365v319.803653c0 17.662265 14.3181 31.980365 31.980365 31.980366 8.28878 0 15.839757-3.15383 21.521153-8.32562a63.882959 63.882959 0 0 0 13.668301-10.407024l211.184816-127.468136c24.976858-24.976858 24.976858-65.472154 0-90.447989L450.954669 338.595648a63.882959 63.882959 0 0 0-13.668301-10.407024 31.865755 31.865755 0 0 0-21.521153-8.325619zM511.706311 191.938474c43.201941 0 85.077677 8.447393 124.46371 25.105794 38.075177 16.10377 72.28328 39.172161 101.67468 68.563562 29.391401 29.391401 52.458769 63.599504 68.563562 101.673657 16.659425 39.386032 25.105794 81.261769 25.105794 124.46371s-8.447393 85.077677-25.105794 124.463709c-16.10377 38.075177-39.172161 72.28328-68.563562 101.673658-29.391401 29.391401-63.599504 52.459792-101.67468 68.563562-39.386032 16.658402-81.261769 25.105794-124.46371 25.105794s-85.077677-8.447393-124.463709-25.105794c-38.075177-16.10377-72.28328-39.172161-101.674681-68.563562-29.391401-29.391401-52.458769-63.599504-68.563562-101.673658-16.658402-39.386032-25.105794-81.261769-25.105794-124.463709s8.447393-85.077677 25.105794-124.46371c16.104793-38.075177 39.172161-72.28328 68.563562-101.673657 29.391401-29.391401 63.599504-52.459792 101.674681-68.563562 39.386032-16.659425 81.261769-25.105794 124.463709-25.105794m0-63.956638c-211.94718 0-383.76336 171.817204-383.76336 383.763361S299.760155 895.508557 511.706311 895.508557s383.764384-171.817204 383.764384-383.76336-171.818227-383.76336-383.764384-383.763361z" /></svg>